# xmcd
#
# Track frame offsets: 
#        150
#        18170
#        35305
#        54500
#        72625
#        93397
#        104912
#        124922
#
# Disc length: 1883 seconds
#
# Revision: 0
# Processed by: cddbd v1.5.2PL0 Copyright (c) Steve Scherf et al.
# Submitted via: ExactAudioCopy v1.0b2
#
DISCID=6e075908
DTITLE=黄启光 - HiFi 弦乐
DYEAR=1990
DGENRE=Pop
TTITLE0=Serenade 小夜曲
TTITLE1=Humoresque 幽默曲
TTITLE2=Nooturne
TTITLE3=Serenade  小夜曲
TTITLE4=Ave Maria  圣母颂
TTITLE5=Hungarian Dance匈牙利舞曲
TTITLE6=Serenade  小夜曲
TTITLE7=Waltz of the Flowers花之圆舞曲
EXTD=
EXTT0=
EXTT1=
EXTT2=
EXTT3=
EXTT4=
EXTT5=
EXTT6=
EXTT7=
PLAYORDER=
